<mxfile host="drawio-plugin" modified="2022-11-23T02:13:35.122Z" agent="5.0 (Windows NT 6.2; Win64; x64) AppleWebKit/537.36 (KHTML, like Gecko) Chrome/98.0.4758.102 Safari/537.36" version="15.5.4" etag="ZTgeVZX3_5chYLevL2bt" type="embed"><diagram id="gZFLk-6TLE_g3E-Mna3_" name="Page-1"><mxGraphModel dx="1144" dy="561" grid="1" gridSize="10" guides="1" tooltips="1" connect="1" arrows="1" fold="1" page="1" pageScale="1" pageWidth="850" pageHeight="1100" math="0" shadow="0"><root><mxCell id="0"/><mxCell id="1" parent="0"/><mxCell id="5" value=":ScrabbleModel" style="shape=umlLifeline;perimeter=lifelinePerimeter;whiteSpace=wrap;html=1;container=1;collapsible=0;recursiveResize=0;outlineConnect=0;" vertex="1" parent="1"><mxGeometry x="160" y="10" width="100" height="540" as="geometry"/></mxCell><mxCell id="8" value="" style="html=1;points=[];perimeter=orthogonalPerimeter;" vertex="1" parent="5"><mxGeometry x="45" y="50" width="10" height="470" as="geometry"/></mxCell><mxCell id="6" value="BoardValidation" style="ellipse;whiteSpace=wrap;html=1;" vertex="1" parent="1"><mxGeometry x="10" y="10" width="120" height="60" as="geometry"/></mxCell><mxCell id="7" value=":Board" style="shape=umlLifeline;perimeter=lifelinePerimeter;whiteSpace=wrap;html=1;container=1;collapsible=0;recursiveResize=0;outlineConnect=0;" vertex="1" parent="1"><mxGeometry x="340" y="10" width="100" height="540" as="geometry"/></mxCell><mxCell id="12" value="" style="html=1;points=[];perimeter=orthogonalPerimeter;" vertex="1" parent="7"><mxGeometry x="45" y="80" width="10" height="420" as="geometry"/></mxCell><mxCell id="42" value="copySelfGrid()" style="edgeStyle=orthogonalEdgeStyle;html=1;align=left;spacingLeft=2;endArrow=block;rounded=0;entryX=1;entryY=0;" edge="1" parent="7"><mxGeometry relative="1" as="geometry"><mxPoint x="55" y="190" as="sourcePoint"/><Array as="points"><mxPoint x="55" y="200"/><mxPoint x="81" y="200"/><mxPoint x="81" y="210"/></Array><mxPoint x="61" y="210" as="targetPoint"/><mxPoint as="offset"/></mxGeometry></mxCell><mxCell id="48" value="" style="html=1;points=[];perimeter=orthogonalPerimeter;" vertex="1" parent="7"><mxGeometry x="50" y="244" width="10" height="10" as="geometry"/></mxCell><mxCell id="14" value="validStatus" style="html=1;verticalAlign=bottom;endArrow=open;dashed=1;endSize=8;exitX=-0.119;exitY=0.997;rounded=0;exitDx=0;exitDy=0;exitPerimeter=0;" edge="1" source="12" parent="1" target="8"><mxGeometry x="-0.007" y="21" relative="1" as="geometry"><mxPoint x="214" y="166" as="targetPoint"/><Array as="points"/><mxPoint as="offset"/></mxGeometry></mxCell><mxCell id="13" value="isValidPlacement(placeEvent)" style="html=1;verticalAlign=bottom;endArrow=block;entryX=0;entryY=0;rounded=0;" edge="1" target="12" parent="1" source="8"><mxGeometry relative="1" as="geometry"><mxPoint x="230" y="90" as="sourcePoint"/></mxGeometry></mxCell><mxCell id="15" value=":BoardValidator" style="shape=umlLifeline;perimeter=lifelinePerimeter;whiteSpace=wrap;html=1;container=1;collapsible=0;recursiveResize=0;outlineConnect=0;" vertex="1" parent="1"><mxGeometry x="520" y="10" width="100" height="540" as="geometry"/></mxCell><mxCell id="17" value="" style="html=1;points=[];perimeter=orthogonalPerimeter;" vertex="1" parent="15"><mxGeometry x="45" y="100" width="10" height="80" as="geometry"/></mxCell><mxCell id="23" value="" style="html=1;points=[];perimeter=orthogonalPerimeter;" vertex="1" parent="15"><mxGeometry x="45" y="280" width="10" height="180" as="geometry"/></mxCell><mxCell id="19" value="validStatus" style="html=1;verticalAlign=bottom;endArrow=open;dashed=1;endSize=8;exitX=0;exitY=0.95;rounded=0;" edge="1" source="17" parent="1" target="12"><mxGeometry relative="1" as="geometry"><mxPoint x="400" y="186" as="targetPoint"/><mxPoint as="offset"/></mxGeometry></mxCell><mxCell id="21" value="opt" style="shape=umlFrame;whiteSpace=wrap;html=1;width=40;height=20;" vertex="1" parent="1"><mxGeometry x="190" y="200" width="600" height="290" as="geometry"/></mxCell><mxCell id="18" value="isValidLocation(placeEvent)" style="html=1;verticalAlign=bottom;endArrow=block;entryX=0;entryY=0;rounded=0;" edge="1" target="17" parent="1" source="12"><mxGeometry relative="1" as="geometry"><mxPoint x="400" y="110" as="sourcePoint"/></mxGeometry></mxCell><mxCell id="22" value="[validStatus == Success]" style="text;html=1;align=center;verticalAlign=middle;resizable=0;points=[];autosize=1;strokeColor=none;fillColor=none;" vertex="1" parent="1"><mxGeometry x="230" y="200" width="150" height="20" as="geometry"/></mxCell><mxCell id="24" value="validStatus" style="html=1;verticalAlign=bottom;endArrow=open;dashed=1;endSize=8;rounded=0;" edge="1" parent="1"><mxGeometry relative="1" as="geometry"><mxPoint x="395" y="470" as="targetPoint"/><mxPoint x="570" y="470" as="sourcePoint"/><mxPoint as="offset"/><Array as="points"/></mxGeometry></mxCell><mxCell id="51" value="loop" style="shape=umlFrame;whiteSpace=wrap;html=1;width=40;height=20;" vertex="1" parent="1"><mxGeometry x="380" y="330" width="400" height="120" as="geometry"/></mxCell><mxCell id="25" value="isInvalidWordInBoard(curWords)" style="html=1;verticalAlign=bottom;endArrow=block;entryX=0;entryY=0;rounded=0;" edge="1" parent="1"><mxGeometry x="-0.0118" y="-20" relative="1" as="geometry"><mxPoint x="396" y="290.0000000000001" as="sourcePoint"/><mxPoint x="566" y="290.0000000000001" as="targetPoint"/><mxPoint as="offset"/></mxGeometry></mxCell><mxCell id="26" value=":DictionaryHandler" style="shape=umlLifeline;perimeter=lifelinePerimeter;whiteSpace=wrap;html=1;container=1;collapsible=0;recursiveResize=0;outlineConnect=0;" vertex="1" parent="1"><mxGeometry x="650" y="10" width="110" height="550" as="geometry"/></mxCell><mxCell id="28" value="" style="html=1;points=[];perimeter=orthogonalPerimeter;" vertex="1" parent="26"><mxGeometry x="50" y="338" width="10" height="45" as="geometry"/></mxCell><mxCell id="53" value="isValidWord(curWord)" style="html=1;verticalAlign=bottom;endArrow=block;entryX=-0.133;entryY=-0.015;rounded=0;entryDx=0;entryDy=0;entryPerimeter=0;" edge="1" parent="26" target="28"><mxGeometry x="-0.0118" y="-20" relative="1" as="geometry"><mxPoint x="-75" y="338.0000000000001" as="sourcePoint"/><mxPoint x="95" y="338.0000000000001" as="targetPoint"/><mxPoint as="offset"/></mxGeometry></mxCell><mxCell id="39" value="" style="html=1;points=[];perimeter=orthogonalPerimeter;" vertex="1" parent="1"><mxGeometry x="390" y="220" width="10" height="10" as="geometry"/></mxCell><mxCell id="43" value="setWordTiles(placeEvent)" style="edgeStyle=orthogonalEdgeStyle;html=1;align=left;spacingLeft=2;endArrow=block;rounded=0;entryX=1;entryY=0;" edge="1" parent="1"><mxGeometry relative="1" as="geometry"><mxPoint x="395" y="234" as="sourcePoint"/><Array as="points"><mxPoint x="395" y="240"/><mxPoint x="421" y="240"/><mxPoint x="421" y="254"/></Array><mxPoint x="401" y="254" as="targetPoint"/><mxPoint as="offset"/></mxGeometry></mxCell><mxCell id="49" value="getCurrentWords()" style="edgeStyle=orthogonalEdgeStyle;html=1;align=left;spacingLeft=2;endArrow=block;rounded=0;entryX=1;entryY=0;" edge="1" parent="1"><mxGeometry relative="1" as="geometry"><mxPoint x="395" y="265" as="sourcePoint"/><Array as="points"><mxPoint x="395" y="264"/><mxPoint x="395" y="265"/><mxPoint x="421" y="265"/><mxPoint x="421" y="275"/></Array><mxPoint x="401" y="275" as="targetPoint"/><mxPoint as="offset"/></mxGeometry></mxCell><mxCell id="50" value="" style="html=1;points=[];perimeter=orthogonalPerimeter;" vertex="1" parent="1"><mxGeometry x="390" y="275" width="10" height="10" as="geometry"/></mxCell><mxCell id="52" value="[for each word in curWords]" style="text;html=1;align=center;verticalAlign=middle;resizable=0;points=[];autosize=1;strokeColor=none;fillColor=none;" vertex="1" parent="1"><mxGeometry x="390" y="349" width="160" height="20" as="geometry"/></mxCell><mxCell id="55" value="isValidWord" style="html=1;verticalAlign=bottom;endArrow=open;dashed=1;endSize=8;rounded=0;exitX=-0.133;exitY=0.985;exitDx=0;exitDy=0;exitPerimeter=0;" edge="1" parent="1" source="28" target="23"><mxGeometry relative="1" as="geometry"><mxPoint x="575" y="391" as="targetPoint"/><mxPoint x="695" y="391" as="sourcePoint"/><mxPoint as="offset"/><Array as="points"/></mxGeometry></mxCell><mxCell id="57" value="break" style="shape=umlFrame;whiteSpace=wrap;html=1;width=40;height=20;" vertex="1" parent="1"><mxGeometry x="380" y="400" width="400" height="50" as="geometry"/></mxCell><mxCell id="60" value="&lt;span style=&quot;font-size: 11px&quot;&gt;[isValidWord == false]&lt;/span&gt;" style="text;html=1;align=center;verticalAlign=middle;resizable=0;points=[];autosize=1;strokeColor=none;fillColor=none;" vertex="1" parent="1"><mxGeometry x="420" y="400" width="120" height="20" as="geometry"/></mxCell><mxCell id="62" value="validStatus" style="html=1;verticalAlign=bottom;endArrow=open;dashed=1;endSize=8;rounded=0;" edge="1" parent="1"><mxGeometry relative="1" as="geometry"><mxPoint x="395" y="439" as="targetPoint"/><mxPoint x="567.5" y="439" as="sourcePoint"/><mxPoint as="offset"/><Array as="points"/></mxGeometry></mxCell></root></mxGraphModel></diagram></mxfile>